<?xml version="1.0" encoding="UTF-8"?>
<svg id="Calque_1" xmlns="http://www.w3.org/2000/svg" version="1.1" viewBox="0 0 450.9 109.5">
  <!-- Generator: Adobe Illustrator 30.0.0, SVG Export Plug-In . SVG Version: 2.1.1 Build 123)  -->
  <defs>
    <style>
      .st0 {
        fill: none;
      }

      .st1 {
        fill: #19908a;
      }
    </style>
  </defs>
  <path class="st0" d="M236.8,61.4c-2.5-2-6-2.9-10.5-2.9s-8.5,1-11.9,3c-3.4,2-5,4.7-5,8.2s1.7,6.1,5.1,8.2c3.4,2,7.3,3,11.8,3s8-1,10.5-3c2.5-2,3.8-4.7,3.8-8.2s-1.3-6.2-3.8-8.2Z"/>
  <path class="st0" d="M434.8,61.4c-2.5-2-6-2.9-10.5-2.9s-8.5,1-11.9,3c-3.4,2-5,4.7-5,8.2s1.7,6.1,5.1,8.2c3.4,2,7.3,3,11.8,3s8-1,10.5-3c2.5-2,3.8-4.7,3.8-8.2s-1.3-6.2-3.8-8.2Z"/>
  <g>
    <path class="st1" d="M35.1,72.3c1.7.7,10.9,3.3,13.2,1.8.3-.2.5-.5.5-.9,0-.3-.2-.6-.5-.8-.5-.3-4-.9-5-1.2-11.6-3.6-20.7-13.1-21.9-25.5-.3-3.1-.2-6.6,0-9.7.6-.2.7.4,1,1.1,3.9,10,12.1,17.9,23.2,18.8.8-1-3.2-2.1-4.2-2.7-13.2-7.3-16.1-19.7-17.1-33.6,0-.4,0-1.5-.7-1.2s-3.6,6.7-4,7.8c-6.7,17.2-2.6,38.4,15.7,46Z"/>
    <path class="st1" d="M101.6,41.6h0s-25.2,0-30.3,0c-.8,0-1.5,0-2.2.2s-1.4.4-2.2.7c-3.9,1.5-7.1,3.7-5.2,8.3,3.3-3.8,9.3-7.1,14.4-3.8,2.7,1.7-.4,1-.8,1.5-.8.9-1.4,1.8-2,2.7-1.9,3.3-2.6,6.5-3.3,10-.4,1.9-.9,3.9-1.6,6-.5,1.4-1.2,2.8-2,4.3-1.6,2.7-3.6,5.4-6,7.7-2.5,2.5-5.3,4.5-8.2,5.8,3.7-3.9,6.5-8,8.2-12.4.1-.4.3-.7.4-1.1,1.1-3.2,1.5-6.6,1.3-10.3-.1-2-.5-4-1-6.1-.2-.7-.4-1.3-.6-2-1.5-4.3-3.9-8.3-6.6-12.1-2.7-4-5.6-7.9-7.8-12.1-4.6-8.7-7.6-18.9-7.5-28.8-.9-.2-.9.3-1.3.8-8.1,10.4-10.7,30-1.5,40.4,0-1.1-1.4-5.2-1.8-7.9-.7-4.6,0-11.9,1-16.4.2-.7.5-2.5,1.3-2.7.4,9.9,6.7,18.8,12.3,27.7,7.3,11.7,13.4,23.2,3.4,36.5-1.1.2-2.3.3-3.4.4-5,.6-10.1,1.1-15,2.5-13.8,3.9-27.2,15.1-33.3,28.1,13.7-11,31.7-11.5,47.5-17.6.3,0,.8-.3.8-.3h53.4v-10.3h-37.5c2.9-2.9,5.3-6.2,7.2-9.9h26.3v-10.3h-23.1s0,0,0-.1c1.1-5.7,6.2-9.9,12-9.9h5.6c5.3,0,9.5-4.3,9.5-9.5ZM13.7,97.7c0-.5.4-.8.9-1.2,9.4-8.2,21.4-12.2,33.6-13.9,0,0,0,0,0,0,0,0,0,0,0,0-8.7,10-22.5,11.7-34.5,15.1Z"/>
  </g>
  <path class="st1" d="M173.4,47.6c-4.1,0-7.8.8-11.1,2.3-3.3,1.5-6,3.4-8,5.6-3.2-5.3-9.1-7.9-18-7.9s-7.4.7-10.6,2.1c-3.2,1.4-5.9,3.2-8,5.2v-7.3h-12v44h12v-26.2c1.2-2.4,3.1-4.3,5.7-5.7,2.6-1.4,5.6-2.1,9-2.1s4.8.2,6.5.7c1.7.5,3,1.2,3.9,2.2.9,1,1.5,2.1,1.9,3.4.3,1.3.5,2.9.5,4.8v22.9h12v-22.9c0-2.1-.2-4.2-.5-6.1,1.5-1.6,3.3-2.8,5.6-3.7,2.2-.9,4.6-1.3,7.2-1.3s4.8.2,6.5.7c1.7.5,3,1.2,3.9,2.2s1.5,2.1,1.9,3.4c.3,1.3.5,2.9.5,4.8v22.9h12v-22.9c0-7.2-1.7-12.5-5.2-15.9-3.4-3.4-8.7-5.2-15.9-5.2Z"/>
  <path class="st1" d="M240.8,52.6c-1.7-1.5-4.2-2.7-7.5-3.6-3.3-.9-6.8-1.4-10.6-1.4s-5,.3-7.5.9c-2.4.6-4.8,1.5-6.9,2.7-2.2,1.2-4.1,2.7-5.7,4.4-1.6,1.7-2.9,3.8-3.9,6.2-1,2.4-1.4,5-1.4,7.8s.7,6.6,2.2,9.5c1.5,2.8,3.4,5.2,5.8,7,2.4,1.8,5.1,3.2,8.2,4.1,3,1,6.1,1.4,9.3,1.4,8,0,14-1.8,18-5.3v5.4h12v-44h-12v5ZM236.8,77.8c-2.5,2-6,3-10.5,3s-8.4-1-11.8-3c-3.4-2-5.1-4.7-5.1-8.2s1.7-6.2,5-8.2c3.4-2,7.3-3,11.9-3s8,1,10.5,2.9c2.5,2,3.8,4.7,3.8,8.2s-1.3,6.2-3.8,8.2Z"/>
  <path class="st1" d="M291.9,47.6c-4.6,0-8.7.7-12.4,2.2-3.7,1.5-6.8,3.3-9.1,5.4v-7.6h-12v44h12v-25.9c1.2-2.5,3.4-4.5,6.6-6,3.1-1.5,6.7-2.2,10.6-2.2,5.7,0,9.9.9,12.5,2.6,2.6,1.8,3.9,4.6,3.9,8.5v22.9h12v-22.9c0-7.2-2-12.5-5.8-15.9-3.9-3.4-9.9-5.2-18.1-5.2Z"/>
  <path class="st1" d="M335.2,60.7c2.9-2.1,7-3.1,12.5-3.1s7.7.7,10.7,2.1c2.9,1.4,4.9,3.4,5.9,6l.2.5h11.9v-.9c-1.1-5.8-4-10.2-8.8-13.1-4.9-3-11.4-4.5-19.8-4.5s-16.6,1.9-21.5,5.6c-4.9,3.7-7.3,9.2-7.3,16.4s2.5,12.6,7.4,16.3c4.9,3.7,12.1,5.6,21.5,5.6s14.9-1.5,19.7-4.4c4.8-3,7.7-7.3,8.7-12.9l.2-.9h-11.9l-.2.4c-1.1,2.5-3.1,4.4-6,5.8-2.9,1.4-6.5,2.1-10.6,2.1s-2.9,0-4.2-.2c-1.3-.1-2.8-.5-4.4-1-1.6-.5-3-1.2-4.1-2-1.1-.8-2.1-2-2.9-3.5-.8-1.5-1.2-3.3-1.2-5.2,0-3.9,1.4-6.9,4.3-9Z"/>
  <rect class="st1" x="379.8" y="47.6" width="12" height="43.9"/>
  <rect class="st1" x="379.8" y="33.8" width="12" height="12"/>
  <path class="st1" d="M438.9,47.6v5c-1.7-1.5-4.2-2.7-7.5-3.6-3.3-.9-6.8-1.4-10.6-1.4s-5,.3-7.5.9c-2.4.6-4.8,1.5-6.9,2.7-2.2,1.2-4.1,2.7-5.7,4.4-1.6,1.7-2.9,3.8-3.9,6.2-1,2.4-1.4,5-1.4,7.8s.7,6.6,2.2,9.5c1.5,2.8,3.4,5.2,5.8,7,2.4,1.8,5.1,3.2,8.2,4.1,3,1,6.1,1.4,9.3,1.4,8,0,14-1.8,18-5.3v5.4h12v-44h-12ZM434.8,77.8c-2.5,2-6,3-10.5,3s-8.4-1-11.8-3c-3.4-2-5.1-4.7-5.1-8.2s1.7-6.2,5-8.2c3.4-2,7.3-3,11.9-3s8,1,10.5,2.9c2.5,2,3.8,4.7,3.8,8.2s-1.3,6.2-3.8,8.2Z"/>
</svg>