<?xml version="1.0" encoding="UTF-8"?>
<svg id="Calque_1" xmlns="http://www.w3.org/2000/svg" version="1.1" viewBox="0 0 193.7 208.8">
  <!-- Generator: Adobe Illustrator 30.0.0, SVG Export Plug-In . SVG Version: 2.1.1 Build 123)  -->
  <defs>
    <style>
      .st0 {
        fill: #19908a;
      }
    </style>
  </defs>
  <path class="st0" d="M66.8,137.8c3.3,1.4,20.8,6.3,25.1,3.5.6-.4.9-.9,1-1.6,0-.6-.3-1.2-1-1.5-1-.5-7.7-1.7-9.6-2.3-22.1-6.8-39.5-24.9-41.7-48.6-.6-5.9-.4-12.6,0-18.5,1.2-.5,1.4.8,1.9,2.1,7.5,19.2,23,34,44.2,35.8,1.6-1.9-6.2-4.1-8-5.1-25.1-13.8-30.8-37.5-32.6-64,0-.8-.2-2.9-1.3-2.2s-6.9,12.8-7.7,14.9c-12.8,32.8-5,73.1,29.8,87.6Z"/>
  <path class="st0" d="M193.7,79.3h0s-48,0-57.8,0c-1.4,0-2.9,0-4.3.4s-2.7.7-4.3,1.3c-7.4,2.8-13.5,7-9.9,15.8,6.2-7.2,17.7-13.6,27.4-7.3,5.2,3.3-.9,1.9-1.6,2.8-1.5,1.7-2.7,3.5-3.7,5.2-3.7,6.2-4.9,12.4-6.3,19-.8,3.7-1.7,7.5-3.1,11.4-1,2.7-2.3,5.4-3.8,8.1-3,5.2-6.9,10.3-11.4,14.7-4.8,4.7-10.1,8.6-15.6,11.1,7.1-7.4,12.4-15.2,15.6-23.7.3-.7.5-1.4.7-2.1,2-6.2,2.9-12.6,2.4-19.5-.3-3.8-.9-7.6-1.9-11.6-.3-1.3-.7-2.6-1.2-3.8-2.9-8.3-7.5-15.8-12.5-23.1-5.2-7.6-10.7-15.1-14.9-23-8.7-16.5-14.5-36.1-14.3-54.8-1.7-.4-1.8.5-2.5,1.5-15.4,19.7-20.3,57.2-2.9,77.1,0-2.1-2.8-9.9-3.5-15-1.3-8.7-.1-22.7,2-31.3.3-1.3.9-4.8,2.5-5.2.8,18.9,12.8,35.9,23.4,52.8,13.9,22.2,25.5,44.2,6.5,69.6-2.1.3-4.3.6-6.5.8-9.6,1.2-19.3,2.2-28.6,4.8-26.4,7.5-51.8,28.7-63.4,53.5,26.1-21,60.4-21.8,90.5-33.6.5-.2,1-.4,1.4-.6h0c0,0,101.7,0,101.7,0v-19.6h-71.6c5.5-5.5,10.2-11.8,13.7-18.9h50.1v-19.5h-44.1c0,0,0-.1,0-.2,2.1-10.9,11.7-18.8,22.9-18.8h10.8c10,0,18.2-8.1,18.2-18.2ZM26.2,186.2c-.1-1,.8-1.6,1.7-2.4,17.9-15.6,40.8-23.2,64.1-26.5,0,0,0,0,.1,0,0,0,0,0-.1.1-16.5,19.1-42.8,22.3-65.8,28.8Z"/>
</svg>